<svg width="380" height="380" viewBox="0 0 380 380" fill="none" xmlns="http://www.w3.org/2000/svg">
<path d="M54.1667 190C54.1667 225.909 68.4776 260.347 93.9513 285.738C119.425 311.13 153.975 325.394 190 325.394C226.025 325.394 260.575 311.13 286.049 285.738C311.522 260.347 325.833 225.909 325.833 190M54.1667 190C54.1667 154.091 68.4776 119.653 93.9513 94.2617C119.425 68.8704 153.975 54.6057 190 54.6057C226.025 54.6057 260.575 68.8704 286.049 94.2617C311.522 119.653 325.833 154.091 325.833 190M54.1667 190H27M325.833 190H353M325.833 190H190L108.5 49.2801M36.8343 245.548L62.371 236.287M317.647 143.677L343.184 134.416M65.142 294.434L85.9698 277.031M294.066 102.969L314.876 85.5658M108.518 330.72L122.101 307.251L190.036 190M257.935 72.7485L271.518 49.2801M161.71 350L166.419 323.336M213.599 56.6637L218.308 30M218.308 350L213.599 323.336M166.419 56.6637L161.71 30M271.5 330.702L257.917 307.251M314.858 294.434L294.048 277.031M85.9698 102.95L65.142 85.5478M343.184 245.566L317.647 236.305M62.3891 143.695L36.8524 134.416" stroke="black" stroke-width="29" stroke-linecap="round" stroke-linejoin="round"/>
<rect x="2" y="135" width="376" height="111" rx="55.5" fill="#F46624"/>
<path d="M300.029 213.746L300.028 213.747C299.522 214.997 299.353 216.321 299.887 217.544C300.417 218.759 301.494 219.538 302.746 220.026C303.964 220.529 305.261 220.705 306.468 220.191C307.677 219.676 308.454 218.613 308.944 217.38L308.946 217.375L312.621 208.028H335.082L338.94 217.386C338.941 217.388 338.942 217.39 338.942 217.392C339.439 218.622 340.228 219.667 341.443 220.175C342.651 220.681 343.959 220.518 345.203 220.03L345.209 220.028C346.451 219.535 347.512 218.746 348.024 217.523C348.533 216.305 348.357 214.991 347.853 213.747L347.853 213.747L347.85 213.738L328.837 167.699C328.457 166.674 327.869 165.793 327.022 165.157C326.164 164.513 325.145 164.202 324.049 164.151L324.015 164.15H323.98H323.823C322.713 164.15 321.676 164.441 320.78 165.071C319.894 165.692 319.238 166.578 318.763 167.623L318.75 167.651L318.738 167.68L300.029 213.746ZM316.397 198.425L323.616 180.121L331.136 198.425H316.397Z" fill="black" stroke="black" stroke-width="3"/>
<path d="M248.197 166.942L248.191 166.933L248.185 166.925C246.997 165.19 245.366 164.15 243.331 164.15C242 164.15 240.725 164.484 239.795 165.415C238.864 166.345 238.53 167.62 238.53 168.952V215.647C238.53 216.979 238.864 218.253 239.795 219.184C240.725 220.115 242 220.449 243.331 220.449C244.663 220.449 245.938 220.115 246.868 219.184C247.799 218.253 248.133 216.979 248.133 215.647V184.03L259.936 201.397L259.939 201.401C261.052 203.027 262.526 204.176 264.399 204.176C266.602 204.176 268.399 203.221 269.646 201.401L269.649 201.397L281.373 184.146V215.647C281.373 216.979 281.707 218.253 282.638 219.184C283.569 220.115 284.843 220.449 286.175 220.449C287.507 220.449 288.781 220.115 289.712 219.184C290.642 218.253 290.976 216.979 290.976 215.647V168.952C290.976 167.688 290.727 166.462 289.974 165.532C289.172 164.541 288.02 164.15 286.804 164.15C284.554 164.15 282.722 165.083 281.536 166.957L264.871 192.024L248.197 166.942Z" fill="black" stroke="black" stroke-width="3"/>
<path d="M181.881 213.746L181.881 213.747C181.374 214.997 181.205 216.321 181.739 217.544C182.269 218.759 183.346 219.538 184.599 220.026C185.817 220.529 187.114 220.705 188.32 220.191C189.529 219.676 190.307 218.613 190.797 217.38L190.799 217.375L194.473 208.028H216.935L220.792 217.386C220.793 217.388 220.794 217.39 220.795 217.392C221.291 218.622 222.081 219.667 223.295 220.175C224.504 220.681 225.812 220.518 227.055 220.03L227.061 220.028C228.303 219.535 229.365 218.746 229.876 217.523C230.385 216.305 230.209 214.991 229.706 213.747L229.706 213.747L229.702 213.738L210.689 167.699C210.31 166.674 209.722 165.793 208.875 165.157C208.016 164.513 206.998 164.202 205.902 164.151L205.867 164.15H205.833H205.675C204.565 164.15 203.529 164.441 202.632 165.071C201.747 165.692 201.09 166.578 200.615 167.623L200.602 167.651L200.591 167.68L181.881 213.746ZM198.249 198.425L205.468 180.121L212.989 198.425H198.249Z" fill="black" stroke="black" stroke-width="3"/>
<path d="M149.638 183.915V168.952C149.638 167.62 149.304 166.345 148.374 165.415C147.443 164.484 146.168 164.15 144.837 164.15C143.505 164.15 142.231 164.484 141.3 165.415C140.369 166.345 140.035 167.62 140.035 168.952V215.647C140.035 216.979 140.369 218.253 141.3 219.184C142.231 220.115 143.505 220.449 144.837 220.449C146.168 220.449 147.443 220.115 148.374 219.184C149.304 218.253 149.638 216.979 149.638 215.647V197.701L151.457 195.82L169.611 218.318L169.616 218.324C170.456 219.355 171.519 220.131 172.828 220.264C174.135 220.397 175.331 219.852 176.362 219.013C177.38 218.188 178.133 217.136 178.265 215.838C178.396 214.553 177.884 213.355 177.082 212.301L177.07 212.285L177.057 212.27L158.195 188.814L173.971 172.519C174.912 171.574 175.583 170.429 175.56 169.103C175.538 167.782 174.834 166.662 173.865 165.751C172.922 164.814 171.78 164.147 170.458 164.17C169.133 164.192 168.011 164.901 167.098 165.873L149.638 183.915Z" fill="black" stroke="black" stroke-width="3"/>
<path d="M89.0542 217.45L89.0603 217.454C91.9219 219.511 95.7699 220.449 100.43 220.449H111.75C117.147 220.449 121.451 219.17 124.356 216.326L124.361 216.32C127.273 213.439 128.58 209.124 128.58 203.698C128.58 198.245 127.259 193.906 124.325 191C121.423 188.099 117.129 186.79 111.75 186.79H102.003C98.9173 186.79 97.3632 186.199 96.7201 185.525C96.0448 184.817 95.4842 183.217 95.4842 180.193C95.4842 177.182 96.0369 175.639 96.6691 174.991L96.6753 174.985L96.6813 174.979C97.2938 174.336 98.826 173.753 101.924 173.753H111.279C113.563 173.753 115.056 174.04 115.926 174.466L115.938 174.472L115.951 174.477C116.624 174.792 117.179 175.402 117.514 176.579C117.707 177.779 118.133 178.87 118.918 179.695C119.82 180.641 121.064 180.986 122.363 180.986C123.747 180.986 125.061 180.638 126.018 179.681L126.03 179.67L126.041 179.658C127.04 178.613 127.268 177.224 127.072 175.819L127.068 175.791L127.063 175.762C126.381 171.956 124.709 168.965 121.941 166.987C119.238 165.036 115.628 164.15 111.279 164.15H101.924C96.7594 164.15 92.6322 165.392 89.8577 168.166L89.8577 168.166L89.8519 168.172C87.1087 170.946 85.8808 175.056 85.8808 180.193C85.8808 185.361 87.1238 189.504 89.8855 192.326L89.8912 192.332L89.897 192.338C92.695 195.136 96.8324 196.393 102.003 196.393H111.75C114.961 196.393 116.713 197.025 117.529 197.841L117.535 197.846L117.54 197.852C118.338 198.633 118.976 200.391 118.976 203.698C118.976 206.95 118.352 208.692 117.568 209.476C116.817 210.227 115.074 210.845 111.75 210.845H100.43C97.843 210.845 96.1397 210.522 95.1433 210.029C94.3642 209.61 93.7401 208.816 93.4133 207.343C93.2016 206.103 92.7671 204.966 91.953 204.144C91.0535 203.208 89.7739 202.905 88.4814 202.905C87.1262 202.905 85.8502 203.264 84.9052 204.209C83.8983 205.216 83.637 206.597 83.7645 208L83.7695 208.056L83.7787 208.111C84.4557 212.173 86.1729 215.357 89.0542 217.45Z" fill="black" stroke="black" stroke-width="3"/>
<path d="M31.337 213.746L31.3365 213.747C30.8302 214.997 30.6611 216.321 31.1947 217.544C31.7248 218.759 32.8022 219.538 34.0546 220.026C35.2725 220.529 36.5695 220.705 37.7757 220.191C38.9851 219.676 39.7625 218.613 40.2524 217.38L40.2544 217.375L43.929 208.028H66.3903L70.248 217.386C70.2489 217.388 70.2497 217.391 70.2506 217.393C70.7468 218.622 71.5366 219.667 72.7509 220.175C73.9595 220.681 75.2674 220.518 76.511 220.03L76.5171 220.028C77.7586 219.535 78.8204 218.746 79.3319 217.523C79.8411 216.305 79.665 214.991 79.1614 213.747L79.1615 213.747L79.1576 213.738L60.1448 167.699C59.7654 166.674 59.1775 165.793 58.3304 165.157C57.4718 164.513 56.4534 164.202 55.3574 164.151L55.3229 164.15H55.2883H55.131C54.0209 164.15 52.9844 164.441 52.0876 165.071C51.2024 165.692 50.5459 166.578 50.0707 167.623L50.0581 167.651L50.0465 167.68L31.337 213.746ZM47.7051 198.425L54.9237 180.121L62.4443 198.425H47.7051Z" fill="black" stroke="black" stroke-width="3"/>
</svg>
